<mxfile host="app.diagrams.net" modified="2023-12-08T18:29:32.542Z" agent="Mozilla/5.0 (Windows NT 10.0; Win64; x64; rv:120.0) Gecko/20100101 Firefox/120.0" etag="g9JyoddmS6LhYJNPOfFx" version="22.1.7" type="device">
  <diagram name="Page-1" id="bvP9fr6bwcrkcGKcfZVS">
    <mxGraphModel dx="1750" dy="930" grid="1" gridSize="10" guides="1" tooltips="1" connect="1" arrows="1" fold="1" page="1" pageScale="1" pageWidth="583" pageHeight="827" math="0" shadow="0">
      <root>
        <mxCell id="0" />
        <mxCell id="1" parent="0" />
        <mxCell id="QC0R-iXyVV_EWQdZQXe6-1" value="" style="ellipse;whiteSpace=wrap;html=1;" vertex="1" parent="1">
          <mxGeometry x="160" y="10" width="120" height="80" as="geometry" />
        </mxCell>
        <mxCell id="QC0R-iXyVV_EWQdZQXe6-3" value="Nadaj Paczkę" style="text;html=1;strokeColor=none;fillColor=none;align=center;verticalAlign=middle;whiteSpace=wrap;rounded=0;" vertex="1" parent="1">
          <mxGeometry x="190" y="35" width="60" height="30" as="geometry" />
        </mxCell>
        <mxCell id="QC0R-iXyVV_EWQdZQXe6-4" value="" style="ellipse;whiteSpace=wrap;html=1;" vertex="1" parent="1">
          <mxGeometry x="160" y="130" width="120" height="80" as="geometry" />
        </mxCell>
        <mxCell id="QC0R-iXyVV_EWQdZQXe6-5" value="Odbierz Paczkę" style="text;html=1;strokeColor=none;fillColor=none;align=center;verticalAlign=middle;whiteSpace=wrap;rounded=0;" vertex="1" parent="1">
          <mxGeometry x="190" y="155" width="60" height="30" as="geometry" />
        </mxCell>
        <mxCell id="QC0R-iXyVV_EWQdZQXe6-7" value="" style="ellipse;whiteSpace=wrap;html=1;" vertex="1" parent="1">
          <mxGeometry x="160" y="250" width="120" height="80" as="geometry" />
        </mxCell>
        <mxCell id="QC0R-iXyVV_EWQdZQXe6-8" value="Śledź Paczkę" style="text;html=1;strokeColor=none;fillColor=none;align=center;verticalAlign=middle;whiteSpace=wrap;rounded=0;" vertex="1" parent="1">
          <mxGeometry x="190" y="275" width="60" height="30" as="geometry" />
        </mxCell>
        <mxCell id="QC0R-iXyVV_EWQdZQXe6-10" value="" style="ellipse;whiteSpace=wrap;html=1;" vertex="1" parent="1">
          <mxGeometry x="160" y="370" width="120" height="80" as="geometry" />
        </mxCell>
        <mxCell id="QC0R-iXyVV_EWQdZQXe6-11" value="Zmień Datę Odbioru" style="text;html=1;strokeColor=none;fillColor=none;align=center;verticalAlign=middle;whiteSpace=wrap;rounded=0;" vertex="1" parent="1">
          <mxGeometry x="190" y="395" width="60" height="30" as="geometry" />
        </mxCell>
        <mxCell id="QC0R-iXyVV_EWQdZQXe6-12" value="" style="ellipse;whiteSpace=wrap;html=1;" vertex="1" parent="1">
          <mxGeometry x="160" y="490" width="120" height="80" as="geometry" />
        </mxCell>
        <mxCell id="QC0R-iXyVV_EWQdZQXe6-13" value="Złóż zażalenie" style="text;html=1;strokeColor=none;fillColor=none;align=center;verticalAlign=middle;whiteSpace=wrap;rounded=0;" vertex="1" parent="1">
          <mxGeometry x="190" y="515" width="60" height="30" as="geometry" />
        </mxCell>
        <mxCell id="QC0R-iXyVV_EWQdZQXe6-14" value="" style="ellipse;whiteSpace=wrap;html=1;" vertex="1" parent="1">
          <mxGeometry x="160" y="610" width="120" height="80" as="geometry" />
        </mxCell>
        <mxCell id="QC0R-iXyVV_EWQdZQXe6-15" value="&lt;div&gt;Kontakt z Kurierem&lt;/div&gt;" style="text;html=1;strokeColor=none;fillColor=none;align=center;verticalAlign=middle;whiteSpace=wrap;rounded=0;" vertex="1" parent="1">
          <mxGeometry x="190" y="635" width="60" height="30" as="geometry" />
        </mxCell>
        <mxCell id="QC0R-iXyVV_EWQdZQXe6-16" value="" style="ellipse;whiteSpace=wrap;html=1;" vertex="1" parent="1">
          <mxGeometry x="160" y="730" width="120" height="80" as="geometry" />
        </mxCell>
        <mxCell id="QC0R-iXyVV_EWQdZQXe6-17" value="Zmień sposób dostarczenia lub adres" style="text;html=1;strokeColor=none;fillColor=none;align=center;verticalAlign=middle;whiteSpace=wrap;rounded=0;" vertex="1" parent="1">
          <mxGeometry x="190" y="755" width="60" height="30" as="geometry" />
        </mxCell>
        <mxCell id="QC0R-iXyVV_EWQdZQXe6-18" value="" style="ellipse;whiteSpace=wrap;html=1;" vertex="1" parent="1">
          <mxGeometry x="320" y="10" width="120" height="80" as="geometry" />
        </mxCell>
        <mxCell id="QC0R-iXyVV_EWQdZQXe6-19" value="Odczytaj obszar pracy" style="text;html=1;strokeColor=none;fillColor=none;align=center;verticalAlign=middle;whiteSpace=wrap;rounded=0;" vertex="1" parent="1">
          <mxGeometry x="350" y="35" width="60" height="30" as="geometry" />
        </mxCell>
        <mxCell id="QC0R-iXyVV_EWQdZQXe6-20" value="" style="ellipse;whiteSpace=wrap;html=1;" vertex="1" parent="1">
          <mxGeometry x="320" y="130" width="120" height="80" as="geometry" />
        </mxCell>
        <mxCell id="QC0R-iXyVV_EWQdZQXe6-21" value="Odczytaj tryb pracy" style="text;html=1;strokeColor=none;fillColor=none;align=center;verticalAlign=middle;whiteSpace=wrap;rounded=0;" vertex="1" parent="1">
          <mxGeometry x="350" y="155" width="60" height="30" as="geometry" />
        </mxCell>
        <mxCell id="QC0R-iXyVV_EWQdZQXe6-22" value="" style="ellipse;whiteSpace=wrap;html=1;" vertex="1" parent="1">
          <mxGeometry x="320" y="250" width="120" height="80" as="geometry" />
        </mxCell>
        <mxCell id="QC0R-iXyVV_EWQdZQXe6-23" value="Odczytaj przydzielone auto" style="text;html=1;strokeColor=none;fillColor=none;align=center;verticalAlign=middle;whiteSpace=wrap;rounded=0;" vertex="1" parent="1">
          <mxGeometry x="350" y="275" width="60" height="30" as="geometry" />
        </mxCell>
        <mxCell id="QC0R-iXyVV_EWQdZQXe6-24" value="" style="ellipse;whiteSpace=wrap;html=1;" vertex="1" parent="1">
          <mxGeometry x="320" y="370" width="120" height="80" as="geometry" />
        </mxCell>
        <mxCell id="QC0R-iXyVV_EWQdZQXe6-25" value="Zmień Status Paczki" style="text;html=1;strokeColor=none;fillColor=none;align=center;verticalAlign=middle;whiteSpace=wrap;rounded=0;" vertex="1" parent="1">
          <mxGeometry x="350" y="395" width="60" height="30" as="geometry" />
        </mxCell>
        <mxCell id="QC0R-iXyVV_EWQdZQXe6-26" value="" style="ellipse;whiteSpace=wrap;html=1;" vertex="1" parent="1">
          <mxGeometry x="320" y="490" width="120" height="80" as="geometry" />
        </mxCell>
        <mxCell id="QC0R-iXyVV_EWQdZQXe6-27" value="Kontakt z klientem" style="text;html=1;strokeColor=none;fillColor=none;align=center;verticalAlign=middle;whiteSpace=wrap;rounded=0;" vertex="1" parent="1">
          <mxGeometry x="350" y="515" width="60" height="30" as="geometry" />
        </mxCell>
        <mxCell id="QC0R-iXyVV_EWQdZQXe6-28" value="" style="ellipse;whiteSpace=wrap;html=1;" vertex="1" parent="1">
          <mxGeometry x="320" y="610" width="120" height="80" as="geometry" />
        </mxCell>
        <mxCell id="QC0R-iXyVV_EWQdZQXe6-29" value="Przydziel zadania Kurierom" style="text;html=1;strokeColor=none;fillColor=none;align=center;verticalAlign=middle;whiteSpace=wrap;rounded=0;" vertex="1" parent="1">
          <mxGeometry x="350" y="635" width="60" height="30" as="geometry" />
        </mxCell>
        <mxCell id="QC0R-iXyVV_EWQdZQXe6-30" value="" style="ellipse;whiteSpace=wrap;html=1;" vertex="1" parent="1">
          <mxGeometry x="320" y="730" width="120" height="80" as="geometry" />
        </mxCell>
        <mxCell id="QC0R-iXyVV_EWQdZQXe6-31" value="Rozpatrz zażalenie" style="text;html=1;strokeColor=none;fillColor=none;align=center;verticalAlign=middle;whiteSpace=wrap;rounded=0;" vertex="1" parent="1">
          <mxGeometry x="350" y="755" width="60" height="30" as="geometry" />
        </mxCell>
        <mxCell id="QC0R-iXyVV_EWQdZQXe6-34" style="edgeStyle=orthogonalEdgeStyle;rounded=0;orthogonalLoop=1;jettySize=auto;html=1;exitX=0.5;exitY=0.5;exitDx=0;exitDy=0;exitPerimeter=0;entryX=0;entryY=0.5;entryDx=0;entryDy=0;" edge="1" parent="1" source="QC0R-iXyVV_EWQdZQXe6-32" target="QC0R-iXyVV_EWQdZQXe6-10">
          <mxGeometry relative="1" as="geometry" />
        </mxCell>
        <mxCell id="QC0R-iXyVV_EWQdZQXe6-35" style="edgeStyle=orthogonalEdgeStyle;rounded=1;orthogonalLoop=1;jettySize=auto;html=1;exitX=0.5;exitY=0.5;exitDx=0;exitDy=0;exitPerimeter=0;entryX=0;entryY=0.5;entryDx=0;entryDy=0;" edge="1" parent="1" source="QC0R-iXyVV_EWQdZQXe6-32" target="QC0R-iXyVV_EWQdZQXe6-7">
          <mxGeometry relative="1" as="geometry" />
        </mxCell>
        <mxCell id="QC0R-iXyVV_EWQdZQXe6-36" style="edgeStyle=orthogonalEdgeStyle;rounded=1;orthogonalLoop=1;jettySize=auto;html=1;exitX=0.5;exitY=0.5;exitDx=0;exitDy=0;exitPerimeter=0;entryX=0;entryY=0.5;entryDx=0;entryDy=0;" edge="1" parent="1" source="QC0R-iXyVV_EWQdZQXe6-32" target="QC0R-iXyVV_EWQdZQXe6-4">
          <mxGeometry relative="1" as="geometry" />
        </mxCell>
        <mxCell id="QC0R-iXyVV_EWQdZQXe6-37" style="edgeStyle=orthogonalEdgeStyle;rounded=1;orthogonalLoop=1;jettySize=auto;html=1;exitX=0.5;exitY=0.5;exitDx=0;exitDy=0;exitPerimeter=0;entryX=0;entryY=0.5;entryDx=0;entryDy=0;" edge="1" parent="1" source="QC0R-iXyVV_EWQdZQXe6-32" target="QC0R-iXyVV_EWQdZQXe6-1">
          <mxGeometry relative="1" as="geometry" />
        </mxCell>
        <mxCell id="QC0R-iXyVV_EWQdZQXe6-38" style="edgeStyle=orthogonalEdgeStyle;rounded=1;orthogonalLoop=1;jettySize=auto;html=1;exitX=0.5;exitY=0.5;exitDx=0;exitDy=0;exitPerimeter=0;entryX=0;entryY=0.5;entryDx=0;entryDy=0;" edge="1" parent="1" source="QC0R-iXyVV_EWQdZQXe6-32" target="QC0R-iXyVV_EWQdZQXe6-12">
          <mxGeometry relative="1" as="geometry" />
        </mxCell>
        <mxCell id="QC0R-iXyVV_EWQdZQXe6-39" style="edgeStyle=orthogonalEdgeStyle;rounded=1;orthogonalLoop=1;jettySize=auto;html=1;exitX=0.5;exitY=0.5;exitDx=0;exitDy=0;exitPerimeter=0;entryX=0;entryY=0.5;entryDx=0;entryDy=0;" edge="1" parent="1" source="QC0R-iXyVV_EWQdZQXe6-32" target="QC0R-iXyVV_EWQdZQXe6-14">
          <mxGeometry relative="1" as="geometry" />
        </mxCell>
        <mxCell id="QC0R-iXyVV_EWQdZQXe6-40" style="edgeStyle=orthogonalEdgeStyle;orthogonalLoop=1;jettySize=auto;html=1;exitX=0.5;exitY=0.5;exitDx=0;exitDy=0;exitPerimeter=0;entryX=0;entryY=0.5;entryDx=0;entryDy=0;rounded=1;" edge="1" parent="1" source="QC0R-iXyVV_EWQdZQXe6-32" target="QC0R-iXyVV_EWQdZQXe6-16">
          <mxGeometry relative="1" as="geometry" />
        </mxCell>
        <mxCell id="QC0R-iXyVV_EWQdZQXe6-32" value="Klient" style="shape=umlActor;verticalLabelPosition=bottom;verticalAlign=top;html=1;outlineConnect=0;" vertex="1" parent="1">
          <mxGeometry x="40" y="380" width="40" height="60" as="geometry" />
        </mxCell>
        <mxCell id="QC0R-iXyVV_EWQdZQXe6-42" style="edgeStyle=orthogonalEdgeStyle;rounded=1;orthogonalLoop=1;jettySize=auto;html=1;exitX=0.5;exitY=0.5;exitDx=0;exitDy=0;exitPerimeter=0;entryX=1;entryY=0.5;entryDx=0;entryDy=0;" edge="1" parent="1" source="QC0R-iXyVV_EWQdZQXe6-41" target="QC0R-iXyVV_EWQdZQXe6-22">
          <mxGeometry relative="1" as="geometry" />
        </mxCell>
        <mxCell id="QC0R-iXyVV_EWQdZQXe6-43" style="edgeStyle=orthogonalEdgeStyle;rounded=1;orthogonalLoop=1;jettySize=auto;html=1;exitX=0.5;exitY=0.5;exitDx=0;exitDy=0;exitPerimeter=0;entryX=1;entryY=0.5;entryDx=0;entryDy=0;" edge="1" parent="1" source="QC0R-iXyVV_EWQdZQXe6-41" target="QC0R-iXyVV_EWQdZQXe6-20">
          <mxGeometry relative="1" as="geometry" />
        </mxCell>
        <mxCell id="QC0R-iXyVV_EWQdZQXe6-44" style="edgeStyle=orthogonalEdgeStyle;rounded=1;orthogonalLoop=1;jettySize=auto;html=1;exitX=0.5;exitY=0.5;exitDx=0;exitDy=0;exitPerimeter=0;entryX=1;entryY=0.5;entryDx=0;entryDy=0;" edge="1" parent="1" source="QC0R-iXyVV_EWQdZQXe6-41" target="QC0R-iXyVV_EWQdZQXe6-18">
          <mxGeometry relative="1" as="geometry" />
        </mxCell>
        <mxCell id="QC0R-iXyVV_EWQdZQXe6-45" style="edgeStyle=orthogonalEdgeStyle;rounded=1;orthogonalLoop=1;jettySize=auto;html=1;exitX=0.5;exitY=0.5;exitDx=0;exitDy=0;exitPerimeter=0;entryX=1;entryY=0.5;entryDx=0;entryDy=0;" edge="1" parent="1" source="QC0R-iXyVV_EWQdZQXe6-41" target="QC0R-iXyVV_EWQdZQXe6-24">
          <mxGeometry relative="1" as="geometry" />
        </mxCell>
        <mxCell id="QC0R-iXyVV_EWQdZQXe6-46" style="edgeStyle=orthogonalEdgeStyle;orthogonalLoop=1;jettySize=auto;html=1;exitX=0.5;exitY=0.5;exitDx=0;exitDy=0;exitPerimeter=0;rounded=1;" edge="1" parent="1" source="QC0R-iXyVV_EWQdZQXe6-41" target="QC0R-iXyVV_EWQdZQXe6-26">
          <mxGeometry relative="1" as="geometry">
            <mxPoint x="440" y="510" as="targetPoint" />
            <Array as="points">
              <mxPoint x="480" y="290" />
              <mxPoint x="480" y="520" />
            </Array>
          </mxGeometry>
        </mxCell>
        <mxCell id="QC0R-iXyVV_EWQdZQXe6-41" value="&lt;div&gt;Kurier&lt;/div&gt;" style="shape=umlActor;verticalLabelPosition=bottom;verticalAlign=top;html=1;outlineConnect=0;" vertex="1" parent="1">
          <mxGeometry x="520" y="260" width="40" height="60" as="geometry" />
        </mxCell>
        <mxCell id="QC0R-iXyVV_EWQdZQXe6-48" style="edgeStyle=orthogonalEdgeStyle;rounded=0;orthogonalLoop=1;jettySize=auto;html=1;exitX=0.5;exitY=0.5;exitDx=0;exitDy=0;exitPerimeter=0;entryX=1;entryY=0.5;entryDx=0;entryDy=0;" edge="1" parent="1" source="QC0R-iXyVV_EWQdZQXe6-47" target="QC0R-iXyVV_EWQdZQXe6-28">
          <mxGeometry relative="1" as="geometry" />
        </mxCell>
        <mxCell id="QC0R-iXyVV_EWQdZQXe6-49" style="edgeStyle=orthogonalEdgeStyle;rounded=1;orthogonalLoop=1;jettySize=auto;html=1;exitX=0.5;exitY=0.5;exitDx=0;exitDy=0;exitPerimeter=0;" edge="1" parent="1" source="QC0R-iXyVV_EWQdZQXe6-47" target="QC0R-iXyVV_EWQdZQXe6-26">
          <mxGeometry relative="1" as="geometry">
            <mxPoint x="450" y="550" as="targetPoint" />
            <Array as="points">
              <mxPoint x="480" y="650" />
              <mxPoint x="480" y="540" />
            </Array>
          </mxGeometry>
        </mxCell>
        <mxCell id="QC0R-iXyVV_EWQdZQXe6-50" style="edgeStyle=orthogonalEdgeStyle;rounded=1;orthogonalLoop=1;jettySize=auto;html=1;exitX=0.5;exitY=0.5;exitDx=0;exitDy=0;exitPerimeter=0;entryX=1;entryY=0.5;entryDx=0;entryDy=0;" edge="1" parent="1" source="QC0R-iXyVV_EWQdZQXe6-47" target="QC0R-iXyVV_EWQdZQXe6-30">
          <mxGeometry relative="1" as="geometry" />
        </mxCell>
        <mxCell id="QC0R-iXyVV_EWQdZQXe6-47" value="Administracja" style="shape=umlActor;verticalLabelPosition=bottom;verticalAlign=top;html=1;outlineConnect=0;" vertex="1" parent="1">
          <mxGeometry x="520" y="620" width="40" height="60" as="geometry" />
        </mxCell>
      </root>
    </mxGraphModel>
  </diagram>
</mxfile>
